<svg width="318" height="292" viewBox="0 0 318 292" fill="none" xmlns="http://www.w3.org/2000/svg">
<path d="M274.53 94.834C272.94 93.724 272.45 92.444 272.19 91.044C269.92 78.884 281.09 72.984 289.28 74.314C297.65 75.674 304.09 82.244 306.17 91.274C307.92 98.894 307.21 106.134 303.21 112.954C302.29 114.514 301.56 116.184 300.73 117.824C301.84 118.444 302.23 117.484 302.81 116.964C306.62 113.574 310.75 110.934 316.15 111.124C317.51 111.174 318.2 111.324 317.48 112.944C316.3 115.594 315.25 118.314 314.23 121.034C312.8 124.854 310.35 127.534 306.35 128.724C305.25 129.054 304.17 129.584 303.2 130.204C301.71 131.164 300.52 132.404 300.49 134.774C304.53 131.844 308.74 130.234 313.73 130.304C310.93 137.904 307.73 144.774 299.04 146.924C296.71 147.504 294.44 148.374 292.19 149.224C282.58 152.814 277.32 160.064 275.29 169.834C274.21 175.064 273.62 180.364 274.65 185.704C274.79 186.424 274.77 187.184 275.56 187.654C276.15 181.504 275.87 175.304 277.68 169.354C278.83 165.584 280.31 161.984 283.04 159.044C286.18 155.644 290.04 154.794 293.87 156.564C294.89 157.034 295.63 157.474 294.7 158.734C291.97 162.444 290.88 166.444 292.66 170.924C293.22 172.334 292 172.804 291.21 173.464C281.75 181.294 281.8 198.794 291.34 206.484C292.73 207.604 294.28 208.514 295.84 209.854C291.11 207.964 289.7 210.694 287.8 214.254C280.06 228.734 270.13 241.574 258.02 252.774C245.8 264.074 232.2 273.174 216.98 279.854C195.48 289.294 173 293.204 149.57 291.614C133.53 290.524 117.92 287.334 103.09 281.044C89.55 275.294 77.09 267.744 65.74 258.284C50.9 245.914 39.04 231.184 29.67 214.364C29.55 214.144 29.42 213.934 29.3 213.714C27.23 209.654 27.23 209.654 22.31 209.504C24.65 207.554 27.14 206.324 28.97 204.184C36.01 195.934 34.94 179.574 26.69 173.624C25.58 172.824 24.6 171.984 25.3 170.344C27 166.394 25.88 162.794 23.58 159.534C22.22 157.604 22.89 156.834 24.76 156.184C28.62 154.834 31.84 156.004 34.52 158.774C38.63 163.014 40.4 168.394 41.2 174.054C41.83 178.494 42.02 183.004 42.41 187.554C43.39 186.914 43.29 185.804 43.38 184.874C44.51 173.474 42.53 162.964 34.27 154.394C30.76 150.754 26.32 148.444 21.41 147.704C11.82 146.274 7.75 139.434 4.49 131.564C3.86 130.044 4.84 130.334 5.69 130.364C9.3 130.474 11.82 131.394 17.31 134.644C17.55 133.014 16.74 131.934 15.69 130.964C14.75 130.114 13.66 129.434 12.46 129.124C7.53 127.854 4.8 124.474 3.16 119.894C2.14 117.014 0.68 114.294 0 111.144C6.99 110.514 12.1 113.754 16.75 118.704C16.97 116.524 15.82 115.154 15.05 113.724C12.33 108.664 10.37 103.394 10.79 97.544C11.45 88.374 14.28 80.404 23.35 76.134C31.18 72.454 39.7 74.414 43.82 80.794C46.78 85.384 46.84 90.244 43.97 94.544C43.39 93.774 43.34 92.884 43.25 91.984C42.57 85.604 36.9 82.174 30.9 84.564C26.65 86.264 24.18 89.634 22.72 93.784C19.7 102.354 20.67 110.834 23.6 119.204C26.33 127.014 30.61 134.064 34.51 141.304C38.76 149.204 43.56 156.874 46.46 165.394C50.46 177.144 50.23 188.614 42.86 199.244C42.62 199.584 42.46 200.034 42.14 200.254C38.93 202.484 39.86 205.074 41.4 207.774C49.27 221.614 58.7 234.144 70.63 244.854C89.62 261.904 111.88 272.034 136.7 276.774C152.68 279.824 168.66 278.934 184.61 275.884C207.28 271.544 227.26 261.724 244.74 246.774C257.39 235.964 267.63 223.144 275.74 208.614C276.14 207.894 276.43 207.104 276.82 206.374C277.99 204.204 278.06 202.694 276.1 200.414C270.31 193.684 268.4 185.474 269.02 176.674C269.61 168.174 273.09 160.634 276.92 153.224C281.77 143.854 287.53 134.974 291.87 125.324C295.51 117.234 297.81 108.904 296.67 99.924C296.06 95.114 294.53 90.694 290.92 87.234C287.9 84.344 284.37 82.724 280.25 84.264C276.14 85.814 274.88 89.414 274.67 93.484C274.65 93.814 274.6 94.134 274.53 94.834ZM158.51 288.524C161.67 288.364 164.83 288.224 167.99 288.044C185.56 287.074 202.32 282.774 218.23 275.374C241.76 264.424 260.93 248.214 275.79 226.904C279.6 221.444 283.4 215.984 286 209.804C286.29 209.114 286.84 208.344 285.65 207.734C284.49 207.144 284.04 207.664 283.51 208.574C281.53 211.944 279.48 215.274 277.49 218.634C267.28 235.934 253.59 249.964 237.03 261.154C205.07 282.754 169.88 290.224 132.14 282.714C94.96 275.324 65.29 255.734 43.81 224.214C40.49 219.334 37.21 214.424 34.67 209.074C34.16 208.004 33.6 206.924 32.04 207.854C30.58 208.724 31.62 209.574 32.01 210.344C35.06 216.454 38.35 222.454 42.4 227.934C71.23 267.004 109.99 287.104 158.51 288.524Z" fill="#262324"/>
<path d="M289.52 119.574C289.2 121.864 288.14 122.654 285.84 122.624C276.1 122.484 266.35 122.564 256.6 122.564C255.7 122.564 254.8 122.564 253.95 122.564C253.75 125.334 254.81 126.194 257.52 126.144C267.16 125.964 276.81 126.074 286.49 126.074C286.23 128.404 285.14 129.164 282.85 129.124C274.36 128.974 265.86 129.044 257.36 129.104C256.65 129.104 255.34 128.364 255.27 129.884C255.2 131.274 255.55 132.534 257.43 132.524C260.34 132.504 263.26 132.614 266.17 132.614C271.8 132.634 277.43 132.624 283.11 132.624C282.87 134.884 281.82 135.614 279.65 135.584C272.49 135.474 265.32 135.604 258.16 135.584C256.83 135.584 256.01 135.614 256.1 137.384C256.18 138.894 256.56 139.334 258.1 139.314C265.16 139.234 272.23 139.274 279.36 139.274C279.14 141.814 277.9 142.414 275.72 142.384C269.98 142.294 264.23 142.444 258.48 142.484C257.47 142.494 256.53 142.284 256.58 143.924C256.63 145.384 257.16 145.674 258.5 145.654C264.24 145.584 269.98 145.624 275.83 145.624C275.71 147.954 274.55 148.694 272.64 148.824C268.55 149.114 264.48 148.694 260.4 148.734C259.57 148.744 258.74 148.834 257.91 148.824C256.34 148.804 256.59 149.984 256.51 150.914C256.41 152.104 257.3 151.954 258.03 151.954C262.85 151.964 267.67 151.954 272.5 151.954C272.35 154.254 271.51 155.194 269.19 155.044C265.46 154.804 261.69 155.094 257.95 154.934C256.17 154.854 256.25 155.774 256.11 157.014C255.92 158.674 256.76 158.714 257.99 158.694C261.15 158.634 264.32 158.634 267.49 158.704C268.13 158.714 269.43 158.114 269.32 159.414C269.22 160.484 269.16 161.984 267.26 161.934C263.85 161.844 260.43 161.954 257.01 161.884C255.73 161.854 255.28 162.304 255.18 163.574C255.08 164.824 255.43 165.154 256.65 165.124C260.06 165.054 263.47 165.094 266.98 165.094C266.94 167.444 266.11 168.464 263.68 168.254C261.12 168.034 258.52 168.374 255.94 168.264C254.28 168.194 253.74 168.864 253.67 170.404C253.58 172.344 255.01 171.474 255.74 171.504C258.49 171.604 261.24 171.524 263.99 171.564C264.63 171.574 265.72 171.214 265.39 172.574C265.19 173.404 265.66 174.654 263.96 174.604C260.63 174.504 257.29 174.704 253.97 174.524C251.92 174.414 251.87 175.774 251.75 177.024C251.56 178.944 253.18 177.974 253.87 178.014C257.03 178.204 260.19 178.194 263.36 178.234C264.33 178.244 265.16 178.204 265.06 179.654C264.97 180.934 264.36 181.104 263.29 181.084C259.54 181.044 255.79 181.204 252.05 181.014C249.64 180.894 249.68 182.724 249.29 184.064C248.98 185.114 250.11 184.814 250.68 184.824C255.09 184.904 259.51 185.014 263.92 184.964C265.38 184.944 265.73 185.494 265.81 186.804C265.92 188.544 264.69 187.904 263.96 187.914C259.3 187.964 254.62 188.064 249.97 187.884C247.71 187.794 246.55 188.504 246.31 191.334C250.36 191.334 254.38 191.324 258.39 191.334C260.56 191.344 262.73 191.484 264.88 191.374C266.52 191.284 267.87 191.584 267.72 193.444C267.59 195.114 266.02 194.234 265.16 194.244C258.91 194.334 252.66 194.364 246.42 194.244C244.7 194.214 243.64 194.774 242.78 196.184C238.31 203.524 233.26 210.384 227.02 216.394C211.53 231.324 193.25 240.364 171.88 243.054C144.05 246.564 119.06 239.664 97.1399 222.174C88.1599 215.014 80.7399 206.344 74.9199 196.394C73.9599 194.754 72.8199 194.184 70.9099 194.224C64.6599 194.354 58.4099 194.294 52.1699 194.234C51.4699 194.224 50.1199 194.964 50.1599 193.404C50.1999 192.184 50.4699 191.044 52.3299 191.084C58.6499 191.204 64.9799 191.124 71.5199 191.124C71.1399 188.954 70.4699 187.774 68.0399 187.874C63.2999 188.064 58.5499 187.954 53.7999 187.904C53.2199 187.894 52.0699 188.474 52.1799 187.114C52.2599 186.124 52.0699 184.884 53.7999 184.874C57.9599 184.844 62.1199 184.714 66.2799 184.534C66.9799 184.504 68.4299 185.244 68.2699 183.754C68.1499 182.654 68.0799 180.984 66.0699 181.024C62.5699 181.094 59.0699 181.094 55.5799 180.964C54.6099 180.924 52.9099 181.954 52.8799 179.624C52.8499 177.194 54.6399 178.124 55.7199 178.064C58.5499 177.914 61.3799 178.014 64.2099 177.914C64.8199 177.894 66.1499 178.574 65.8699 177.024C65.6899 176.024 65.9799 174.524 64.1399 174.544C61.0599 174.584 57.9699 174.504 54.8899 174.574C53.4899 174.604 52.4899 174.524 52.5699 172.704C52.6599 170.654 54.1499 171.674 54.9499 171.624C57.4399 171.484 59.9499 171.604 62.4399 171.544C63.0399 171.534 64.2099 171.984 63.9299 170.654C63.7299 169.694 64.3199 168.094 62.3399 168.174C59.5899 168.274 56.8499 168.314 54.0999 168.364C51.9699 168.404 50.8299 167.444 50.9299 165.034C54.1799 165.034 57.4099 165.064 60.6399 165.014C61.3399 165.004 62.4799 165.514 62.4499 164.064C62.4299 163.004 62.1599 162.034 60.8999 161.844C59.9999 161.714 59.0799 161.614 58.1699 161.624C56.0899 161.644 53.9899 161.594 51.9299 161.824C49.5299 162.094 48.5799 161.074 48.6399 158.644C52.2499 158.644 55.8199 158.684 59.3999 158.614C60.2399 158.594 61.5799 159.224 61.6299 157.504C61.6799 155.944 61.0799 154.874 59.3699 154.884C55.8799 154.894 52.3799 154.874 48.8899 155.054C46.6399 155.174 45.4599 154.424 45.4899 151.914C49.9999 151.914 54.4899 151.964 58.9699 151.864C59.6999 151.844 61.1299 152.754 61.1699 150.864C61.1999 149.174 60.4899 148.604 58.7599 148.644C54.3499 148.744 49.9299 148.494 45.5199 148.664C43.3499 148.744 42.2599 148.064 42.0199 145.744C44.9799 145.454 47.9199 145.814 50.8599 145.864C53.6899 145.914 56.5099 145.964 59.3499 145.674C60.8999 145.514 60.9699 144.624 61.0199 143.484C61.0899 141.904 59.9299 142.314 59.1199 142.304C53.5399 142.274 47.9599 142.284 42.3799 142.284C41.7999 142.284 41.2099 142.314 40.6299 142.264C39.2099 142.144 38.8799 140.814 38.8099 139.934C38.7099 138.624 40.0299 139.264 40.6899 139.254C46.9399 139.194 53.1899 139.134 59.4299 139.274C61.3199 139.314 61.2799 138.384 61.4099 137.044C61.5799 135.274 60.5099 135.474 59.3999 135.474C52.4899 135.484 45.5699 135.404 38.6599 135.524C36.5199 135.564 35.1299 135.104 34.8199 132.404C37.9599 132.404 41.0599 132.424 44.1599 132.404C49.4899 132.364 54.8199 132.234 60.1499 132.264C61.6299 132.274 62.2099 131.844 62.2799 130.314C62.3599 128.454 61.0699 129.084 60.2599 129.084C51.8499 129.034 43.4299 128.954 35.0199 129.084C32.7699 129.114 31.8399 128.324 31.6699 126.044C40.6499 126.044 49.5399 126.044 58.4399 126.044C59.5199 126.044 60.6099 125.954 61.6899 126.064C63.9499 126.284 63.4399 124.384 63.5999 123.344C63.8199 121.904 62.4499 122.574 61.8299 122.574C51.9199 122.514 41.9999 122.464 32.0899 122.554C29.9299 122.574 28.5299 122.184 28.5299 119.524C32.3899 119.524 36.2699 119.514 40.1599 119.524C47.4899 119.554 54.8199 119.594 62.1499 119.624C62.4799 119.624 62.8199 119.634 63.1499 119.614C64.7399 119.514 65.3699 118.394 65.3599 117.084C65.3399 115.564 63.9799 116.244 63.2399 116.244C52.1599 116.194 41.0799 116.214 29.9999 116.214C29.3299 116.214 28.6699 116.214 27.9999 116.194C26.5799 116.154 26.1499 115.134 26.1199 114.004C26.0799 112.544 27.3499 113.184 27.9799 113.174C39.8899 113.034 51.7999 112.944 63.7099 113.304C65.3799 113.354 66.8799 113.354 67.5599 111.414C68.0599 109.974 67.8899 109.364 66.1099 109.374C58.0299 109.394 49.9499 109.274 41.8799 109.214C36.9699 109.174 32.0499 109.184 27.1399 109.114C26.2199 109.104 24.8899 109.704 24.8799 107.774C24.8699 105.894 26.1399 106.374 27.1099 106.374C40.2699 106.354 53.4399 106.294 66.5999 106.424C69.0599 106.454 70.3699 105.784 70.6299 103.044C69.7899 103.044 68.9199 103.044 68.0599 103.044C54.3999 103.044 40.7399 103.064 27.0699 102.994C26.3599 102.994 24.8799 103.894 24.8999 101.994C24.9099 100.484 25.5099 99.9341 27.1599 99.9441C41.5699 100.024 55.9799 99.9541 70.3899 100.034C72.0299 100.044 72.9299 99.4941 73.7899 98.1841C76.4199 94.1441 78.9299 89.9841 81.9099 86.2141C98.3899 65.3141 119.92 53.1141 146.27 49.5041C173.55 45.7641 197.91 53.1341 219.46 69.7841C229.11 77.2441 237.46 86.1441 243.12 97.1741C244.21 99.2841 245.62 100.124 248.01 100.104C262.25 99.9941 276.49 100.004 290.74 100.024C291.49 100.024 292.53 99.4541 292.88 100.954C293.32 102.884 292.56 103.094 290.89 103.084C277.14 103.024 263.4 103.034 249.65 103.094C248.83 103.094 247.22 102.184 247.18 103.914C247.15 105.504 248.26 106.374 250.01 106.374C255.42 106.354 260.84 106.424 266.25 106.434C274.5 106.444 282.74 106.424 290.99 106.454C291.83 106.454 293.09 105.884 293.11 107.664C293.13 109.394 292.17 109.424 290.87 109.414C278.04 109.384 265.21 109.374 252.38 109.444C251.55 109.444 249.82 108.574 249.94 110.254C250.03 111.554 250.37 113.244 252.75 113.224C264.49 113.094 276.24 113.114 287.98 113.234C289.24 113.244 291.57 112.024 291.75 114.204C291.97 116.884 289.42 116.174 287.82 116.184C276.82 116.224 265.83 116.184 254.83 116.244C253.96 116.254 252.35 115.424 252.27 117.084C252.2 118.654 253 119.604 255.06 119.584C265.64 119.454 276.22 119.544 286.8 119.554C287.66 119.574 288.56 119.574 289.52 119.574ZM63.6099 147.054C63.6099 198.334 106.3 241.124 156.95 241.704C210.65 242.314 254.55 199.664 254.08 144.404C253.68 96.4141 214.3 50.9641 158.38 51.1241C105.69 51.2741 63.3399 93.7941 63.6099 147.054Z" fill="#2D2A2B"/>
<path d="M277.17 72.814C276.45 73.224 275.81 73.604 275.16 73.954C273.88 74.6441 272.97 76.764 271.67 76.264C270.58 75.844 270.14 73.834 269.3 72.614C257.99 56.094 243.91 42.4641 226.64 32.294C202.33 17.984 175.99 12.164 147.92 14.094C122.01 15.874 99.05 25.304 78.43 40.884C66.05 50.234 56.06 61.734 47.59 74.634C46.51 76.274 45.83 76.594 44.29 75.164C40.28 71.424 40.22 72.924 43.32 68.4141C65.91 35.5541 96.95 15.504 136.14 8.66405C173.94 2.06405 208.43 11.024 239.76 32.774C254.38 42.924 266.32 55.664 275.93 70.624C276.37 71.304 276.73 72.034 277.17 72.814Z" fill="#262324"/>
<path d="M34.59 70.294C35.26 68.214 36.56 66.4641 37.78 64.704C59.49 33.254 88.72 12.394 126.03 3.92405C166.71 -5.30595 204.86 1.81404 239.85 24.574C256.67 35.514 270.21 49.904 281.43 66.504C281.85 67.124 282.3 67.744 282.56 68.434C282.81 69.114 283.86 69.984 282.85 70.544C281.87 71.094 280.55 71.814 279.48 70.454C279.02 69.8641 278.56 69.264 278.15 68.644C257.83 37.784 229.72 17.684 194.1 8.13405C174.6 2.90405 154.83 2.34405 134.96 5.84405C105.88 10.964 80.65 23.694 59.55 44.404C51.99 51.824 44.97 59.744 39.56 68.904C38.15 71.304 36.78 71.584 34.59 70.294Z" fill="#2D2A2B"/>
<path d="M126.76 37.824C126.76 34.444 126.86 31.054 126.72 27.684C126.64 25.774 127.25 24.954 129.16 24.494C133.51 23.454 133.49 23.334 134.66 27.524C136.05 32.484 137.37 37.464 138.87 42.394C139.3 43.824 138.98 44.224 137.64 44.604C133.09 45.894 133.11 45.944 131.81 41.404C131.1 38.924 130.4 36.444 129.68 33.974C129.65 33.854 129.46 33.784 128.8 33.234C128.8 37.264 128.82 40.854 128.79 44.444C128.78 45.774 129.13 47.104 127.05 47.654C125.11 48.174 124.58 47.154 123.81 45.974C121.85 42.954 119.86 39.954 117.88 36.944C117.7 37.034 117.51 37.124 117.33 37.214C118.32 40.714 119.31 44.224 120.27 47.734C120.41 48.244 121.02 48.914 120.37 49.304C119.64 49.744 118.65 50.254 118.24 48.794C116.49 42.554 114.73 36.314 112.97 30.084C112.91 29.854 112.8 29.454 112.88 29.404C114.52 28.364 116.48 28.244 118.26 27.614C119.51 27.174 119.8 28.254 120.27 28.984C122.21 31.974 124.13 34.974 126.06 37.974C126.31 37.914 126.54 37.864 126.76 37.824Z" fill="#262324"/>
<path d="M164.59 260.364C170.29 262.124 168.09 267.484 170.39 271.124C168.86 271.124 167.7 271.084 166.55 271.134C162.59 271.284 162.5 271.204 162.26 267.124C162.18 265.714 162.31 264.294 161.77 262.934C161.18 261.454 159.96 260.974 158.55 261.144C156.89 261.344 157.82 262.734 157.8 263.524C157.75 265.674 157.91 267.844 158.06 269.994C158.13 270.984 157.98 271.574 156.78 271.544C155.37 271.504 153.95 271.594 152.54 271.674C151.55 271.734 151.3 271.284 151.27 270.344C151.09 264.114 150.89 257.884 150.63 251.654C150.58 250.454 150.96 250.054 152.16 250.054C155.4 250.054 158.64 249.924 161.88 249.874C162.46 249.864 163.04 249.924 163.62 250.014C166.61 250.474 168.81 252.344 169.12 254.664C169.44 257.044 168.15 258.774 164.59 260.364ZM157.42 255.034C157.48 256.254 157.52 257.254 157.59 258.254C157.63 258.734 157.65 259.364 158.33 259.324C159.65 259.244 161.08 259.224 161.88 257.934C162.91 256.304 162.83 254.594 161.68 253.044C160.77 251.804 159.25 251.644 158.06 252.034C156.44 252.574 157.8 254.194 157.42 255.034Z" fill="#262324"/>
<path d="M180.1 44.6841C177.68 44.2641 174.26 43.6241 170.82 43.0941C169.74 42.9241 169.72 42.4041 169.88 41.5541C171.02 35.3541 172.15 29.1641 173.24 22.9541C173.43 21.8541 173.86 21.6641 174.93 21.8941C178.01 22.5541 181.15 22.9341 184.21 23.6741C188.98 24.8241 191.26 27.9741 191.23 32.8741C191.22 34.8041 190.87 36.6741 190.22 38.4841C188.66 42.8341 185.76 44.8041 180.1 44.6841ZM184.64 29.8841C184.68 28.7841 184.61 27.7041 184.11 26.7141C183.34 25.1541 181.78 24.6941 180.34 24.7641C179.16 24.8241 179.48 26.3341 179.31 27.1941C178.49 31.3441 177.78 35.5241 177.07 39.6941C176.92 40.6041 176.05 41.824 177.24 42.354C178.41 42.8741 179.85 42.9241 181.05 42.0441C181.96 41.3841 182.43 40.4341 182.8 39.3941C183.89 36.3041 184.31 33.1041 184.64 29.8841Z" fill="#262324"/>
<path d="M109 50.824C108.8 55.354 105.74 57.764 102.01 59.584C98.51 61.294 95.23 60.784 92.31 58.224C90.28 56.444 88.79 54.234 87.78 51.754C85.76 46.824 87.28 42.744 92.16 39.704C96.93 36.734 101.08 37.164 104.65 41.184C107.04 43.894 108.86 46.934 109 50.824ZM104.22 54.824C104.2 52.404 97.75 42.264 95.54 41.184C93.7 40.284 91.29 41.644 91.81 43.574C93.25 48.944 96.22 53.534 100.46 57.144C101.95 58.414 104.24 56.844 104.22 54.824Z" fill="#262324"/>
<path d="M230.6 43.2841C228.91 43.8941 227.25 44.6441 225.52 45.0841C223.36 45.6341 222.51 46.6341 222.64 49.0341C222.89 53.5841 222.71 58.1541 222.71 63.0841C220.69 61.9341 218.94 60.8741 217.13 59.9241C216.17 59.4141 216.28 58.6241 216.28 57.8041C216.28 54.8241 216.28 51.8341 216.28 48.8641C214.89 48.6041 214.63 49.6241 214.18 50.3741C213.58 51.3741 213.02 52.3841 212.44 53.3941C210.8 56.2541 210.81 56.2541 208.04 54.6641C204.99 52.9141 204.99 52.9141 206.74 49.8841C209.43 45.2041 212.16 40.5441 214.78 35.8341C215.52 34.4941 216.13 34.3841 217.44 35.1441C221.57 37.5541 221.61 37.4941 219.18 41.7041C218.49 42.9041 217.79 44.1041 217.05 45.4041C221.82 45.2441 225.53 40.5541 230.49 42.4541C230.52 42.7241 230.56 43.0041 230.6 43.2841Z" fill="#262324"/>
<path d="M243.23 55.014C245.81 55.064 248.78 57.1241 250.91 60.4841C252.05 62.2941 252.03 64.274 251.22 66.234C250.98 66.804 250.91 67.7241 250.05 67.5941C249.26 67.4841 248.28 67.244 247.8 66.694C247.3 66.124 248.27 65.594 248.62 65.084C249.82 63.334 249.82 61.684 248.31 60.134C246.78 58.564 244.99 58.544 243.33 59.714C239.89 62.124 237.02 65.134 234.72 68.644C233.68 70.234 233.8 71.814 235.43 73.044C236.99 74.224 238.04 73.2241 239.07 72.1641C239.65 71.5641 240.17 70.894 240.82 70.384C242.15 69.344 242.37 68.414 240.82 67.394C240.02 66.874 240.02 66.3141 240.71 65.5941C241.47 64.8141 241.86 65.4141 242.32 65.8441C244.19 67.6241 247.19 69.194 247.6 71.264C248.04 73.494 244.57 74.9541 243.03 76.944C242.62 77.4641 242.15 77.944 241.65 78.384C241.12 78.854 240.74 79.8641 239.91 79.5241C239.21 79.2441 238.56 78.644 238.87 77.544C239.16 76.514 238.12 76.704 237.58 76.504C232.46 74.554 229.23 69.594 230.07 64.9141C230.98 59.6441 236.48 54.974 243.23 55.014Z" fill="#262324"/>
<path d="M138.92 260.694C138.17 260.634 137.42 260.604 136.68 260.504C132.75 259.984 132.75 259.984 131.82 263.944C130.81 268.264 130.84 268.134 126.53 267.264C124.61 266.874 124.38 266.164 124.81 264.454C126.21 258.894 127.5 253.314 128.75 247.724C129.08 246.234 129.64 245.614 131.24 246.114C134.73 247.194 138.42 247.544 141.81 248.964C145.63 250.564 146.95 253.954 145.19 257.514C143.9 260.124 141.59 260.764 138.92 260.694ZM135.32 258.064C137.8 258.034 139.04 256.534 139.44 253.624C139.74 251.434 138.78 250.154 136.74 249.524C135.79 249.234 135.23 249.334 135.02 250.484C134.68 252.274 134.28 254.064 133.73 255.804C133.11 257.744 133.99 258.194 135.32 258.064Z" fill="#262324"/>
<path d="M83.2 64.7541C79.8 61.4941 76.91 58.7741 74.08 56.0041C73.55 55.4841 72.3 55.1241 73.38 53.9141C74.42 52.7441 74.92 53.7041 75.54 54.2941C79.88 58.4241 84.16 62.6041 88.57 66.6541C89.79 67.7741 89.43 68.3041 88.56 69.3741C87.1 71.1641 85.63 71.7841 83.22 71.2541C79.14 70.3641 74.96 69.9841 70.99 69.4041C73.49 72.0941 75.94 74.7641 78.43 77.3941C79.08 78.0741 79.87 78.5441 78.79 79.5641C77.7 80.5941 77.33 79.4541 76.84 78.9941C72.66 75.0641 68.49 71.1141 64.41 67.0841C63.82 66.5041 62.2 66.0341 63.03 64.9241C63.93 63.7341 64.65 62.0341 66.89 62.4441C71.14 63.2141 75.43 63.7341 79.71 64.3441C80.62 64.4641 81.53 64.5541 83.2 64.7541Z" fill="#2D2A2B"/>
<path d="M108.2 252.764C106.14 254.094 104.26 255.144 102.59 256.444C101.09 257.604 99.81 257.564 98.17 256.274C100.87 254.534 103.4 252.754 106.08 251.244C107.59 250.394 107.89 249.384 107.67 247.814C107.16 244.204 106.76 240.574 106.29 236.694C108.75 237.554 111.69 237.984 112.84 239.864C114.01 241.784 113.62 244.654 113.91 247.094C117.34 246.994 118.97 241.564 123.48 244.204C120.85 245.914 118.47 247.534 116.01 249.014C114.72 249.784 114.23 250.544 114.49 252.174C115.13 256.084 115.46 260.044 115.95 264.354C113.75 263.404 111.88 262.564 109.99 261.784C109.22 261.464 109.18 260.864 109.1 260.184C108.85 257.824 108.54 255.464 108.2 252.764Z" fill="#262324"/>
<path d="M203 255.794C205.15 260.344 207.71 261.274 211.16 258.754C212.07 258.094 212.8 257.294 212.59 256.044C212.36 254.714 211.46 254.144 210.2 253.844C208.29 253.384 206.38 253.754 204.47 253.694C200.45 253.574 197.63 251.684 196.85 248.494C196.14 245.604 197.97 242.544 201.48 240.754C205.35 238.784 208.47 238.894 210.42 241.204C211.01 241.904 212.22 242.614 210.74 243.824C209.34 244.964 208.9 244.334 208.31 243.084C207.61 241.594 206.23 241.204 204.72 241.504C202.91 241.864 201.03 242.334 200.26 244.244C199.71 245.604 200.32 246.664 201.82 247.094C203.05 247.454 204.29 247.384 205.54 247.244C207.71 246.994 209.87 246.974 211.99 247.554C216.95 248.914 218.52 254.474 214.94 258.174C212.65 260.534 209.74 261.704 206.5 262.024C205.03 262.164 203.7 261.764 202.58 260.764C200.2 258.654 200.3 257.504 203 255.794Z" fill="#262324"/>
<path d="M228.53 232.714C225.84 229.624 223.09 229.544 220.48 232.494C219.71 233.364 219.28 234.324 219.8 235.454C220.3 236.524 221.3 236.744 222.34 236.594C223.65 236.414 224.96 236.154 226.24 235.814C228.1 235.314 229.95 234.884 231.89 235.044C236.89 235.454 239.52 240.434 236.92 244.724C235.11 247.714 232.3 249.504 229 250.404C226.79 251.004 225.01 250.044 223.47 248.364C222.11 246.874 223.28 246.084 224.17 245.354C225.5 244.254 225.34 245.974 225.7 246.414C226.75 247.734 227.88 248.854 229.68 248.314C231.71 247.704 233.63 246.684 234.16 244.424C234.52 242.894 233.57 241.874 232.04 241.594C231.06 241.414 230.07 241.544 229.08 241.804C227.55 242.204 226.01 242.594 224.45 242.804C221.41 243.204 218.61 241.774 217.33 239.224C215.99 236.564 216.82 234.194 218.55 232.054C219.99 230.274 221.85 229.024 224.04 228.304C225.36 227.874 226.64 227.874 227.92 228.464C230.72 229.744 230.87 230.714 228.53 232.714Z" fill="#262324"/>
<path d="M188.6 245.794C189.69 245.404 189.66 246.104 189.86 246.644C190.19 247.554 189.7 247.824 188.94 247.984C187.24 248.344 185.54 248.764 183.83 249.094C182.58 249.334 182.06 249.704 182.44 251.224C183.6 255.894 183.51 255.904 188.22 254.844C189.1 254.644 190.25 253.834 190.59 255.464C190.95 257.184 189.34 256.734 188.61 256.914C184.08 258.054 184.07 258.014 185.11 262.454C186.01 266.304 186.01 266.304 189.76 265.454C191.3 265.104 192.84 264.784 194.37 264.394C195.09 264.214 195.48 264.394 195.65 265.114C195.84 265.894 195.67 266.334 194.78 266.524C190.24 267.524 185.71 268.534 181.2 269.634C180 269.924 179.84 269.434 179.62 268.474C178.25 262.404 176.82 256.354 175.39 250.294C175.2 249.484 175.13 248.834 176.19 248.604C180.38 247.664 184.58 246.704 188.6 245.794Z" fill="#262324"/>
<path d="M163.54 42.574C162.65 42.574 161.64 42.454 160.67 42.594C158.2 42.964 156.48 42.394 156.24 39.554C156.14 38.294 155.4 37.894 154.19 38.044C153.37 38.144 152.51 38.204 151.7 38.074C149.46 37.724 148.27 38.584 148.09 40.864C148.05 41.344 147.85 41.834 147.67 42.294C147.23 43.374 146.21 43.054 145.51 42.934C144.65 42.774 145.17 41.944 145.3 41.494C147.07 35.194 148.92 28.924 150.67 22.614C150.98 21.504 151.54 21.214 152.58 21.134C156.86 20.804 156.87 20.774 158.21 24.894C159.91 30.084 161.6 35.284 163.29 40.484C163.5 41.104 163.93 41.684 163.54 42.574ZM152.08 26.524C151.44 28.834 150.95 30.594 150.46 32.344C149.37 36.204 149.37 36.134 153.32 35.964C154.72 35.904 155.08 35.554 154.62 34.234C153.8 31.904 153.07 29.544 152.08 26.524Z" fill="#262324"/>
<path d="M101.59 236.184C100.38 235.304 99.08 234.264 97.68 233.394C96.84 232.874 95.98 231.324 95.08 232.124C93.69 233.354 92.73 235.094 91.72 236.714C91.49 237.084 92.24 237.454 92.63 237.744C93.83 238.634 95.02 239.534 96.25 240.394C96.91 240.854 96.8 241.274 96.38 241.834C95.99 242.364 95.63 242.744 95 242.174C94.82 242.004 94.61 241.864 94.39 241.734C92.91 240.854 91.16 238.474 90.19 239.134C88.25 240.454 87.06 242.904 85.59 244.904C84.91 245.834 85.93 246.044 86.35 246.364C88.12 247.734 89.96 249.024 91.76 250.354C92.35 250.784 93.07 251.094 92.32 252.084C91.66 252.954 91.22 252.664 90.54 252.154C86.94 249.484 83.33 246.824 79.68 244.224C78.74 243.554 78.55 243.094 79.31 242.084C83.04 237.094 86.71 232.064 90.35 227.014C90.98 226.134 91.42 226.054 92.3 226.714C95.55 229.164 98.86 231.524 102.13 233.944C102.54 234.244 103.31 234.454 102.81 235.234C102.56 235.624 102.42 236.174 101.59 236.184Z" fill="#262324"/>
<path d="M63.61 147.054C63.34 93.7941 105.69 51.2741 158.38 51.1241C214.3 50.9641 253.68 96.4141 254.08 144.404C254.54 199.664 210.65 242.314 156.95 241.704C106.3 241.124 63.61 198.334 63.61 147.054ZM65.4901 146.364C65.4901 197.594 107.29 239.324 158.48 239.654C210.32 239.984 252.29 197.424 252.25 146.754C252.21 95.1041 210.63 53.0841 159.3 53.0041C107.27 52.9241 65.9801 95.0941 65.4901 146.364Z" fill="#FDFDFD"/>
<path d="M65.49 146.364C65.99 95.084 107.27 52.924 159.3 53.004C210.63 53.084 252.21 95.104 252.25 146.754C252.29 197.414 210.32 239.984 158.48 239.654C107.28 239.324 65.48 197.594 65.49 146.364ZM158.46 57.834C110.45 57.344 69.91 97.874 70.34 145.734C70.83 200.684 113.79 234.864 158.71 235.064C205.12 235.264 247.68 199.064 247.57 145.524C247.47 95.744 206.36 57.274 158.46 57.834Z" fill="#262324"/>
<path d="M158.46 57.834C206.36 57.274 247.47 95.744 247.57 145.524C247.68 199.064 205.12 235.264 158.71 235.064C113.78 234.874 70.83 200.694 70.34 145.734C69.9 97.874 110.44 57.344 158.46 57.834ZM138.76 136.914C139.67 138.144 140.22 138.844 140.73 139.564C150.03 152.764 159.34 165.944 168.58 179.184C169.48 180.474 170.37 181.074 172.01 181.004C175.67 180.864 179.34 180.964 183 180.964C186.36 180.964 186.36 180.964 186.36 177.724C186.36 157.154 186.36 136.574 186.36 116.004C186.36 111.134 186.36 111.224 181.61 111.104C179.7 111.054 179.1 111.504 179.11 113.534C179.21 127.614 179.16 141.684 179.16 155.764C179.16 156.564 179.16 157.354 179.16 158.314C178.04 157.774 177.72 156.874 177.22 156.174C166.93 141.744 156.66 127.294 146.43 112.824C145.57 111.604 144.7 111.054 143.18 111.114C140.1 111.234 137.01 111.294 133.94 111.104C131.88 110.974 131.5 111.734 131.51 113.624C131.57 134.614 131.55 155.604 131.55 176.594C131.55 180.984 131.56 180.814 136.02 181.044C138.47 181.174 138.8 180.254 138.79 178.124C138.72 164.604 138.76 151.114 138.76 136.914Z" fill="#27AE60"/>
<path d="M138.76 136.914C138.76 151.114 138.72 164.614 138.8 178.104C138.81 180.234 138.48 181.154 136.03 181.024C131.57 180.794 131.56 180.964 131.56 176.574C131.56 155.584 131.58 134.594 131.52 113.604C131.51 111.714 131.89 110.954 133.95 111.084C137.02 111.274 140.11 111.214 143.19 111.094C144.7 111.034 145.58 111.584 146.44 112.804C156.66 127.284 166.94 141.724 177.23 156.154C177.73 156.854 178.05 157.754 179.17 158.294C179.17 157.334 179.17 156.534 179.17 155.744C179.17 141.664 179.22 127.584 179.12 113.514C179.11 111.484 179.71 111.034 181.62 111.084C186.37 111.204 186.37 111.114 186.37 115.984C186.37 136.554 186.37 157.134 186.37 177.704C186.37 180.944 186.37 180.944 183.01 180.944C179.34 180.944 175.68 180.844 172.02 180.984C170.39 181.044 169.5 180.454 168.59 179.164C159.34 165.934 150.03 152.744 140.74 139.544C140.22 138.844 139.68 138.144 138.76 136.914Z" fill="#145A17"/>
</svg>
